<svg xmlns="http://www.w3.org/2000/svg" width="64" height="64" viewBox="0 0 64 64" role="img" aria-label="PR Vault">
  <rect width="64" height="64" rx="14" fill="#0f1720"/>
  <path fill="#fff" d="M32 7 12 15v14c0 14 8 23 20 29 12-6 20-15 20-29V15L32 7Zm0 7 14 5v10c0 10-5 17-14 22-9-5-14-12-14-22V19l14-5Z"/>
  <path fill="#fff" d="M27 31v-5a5 5 0 0 1 10 0v5h-3v-5a2 2 0 0 0-4 0v5h-3Z"/>
  <path fill="#fff" d="M24 31h16a3 3 0 0 1 3 3v8a3 3 0 0 1-3 3H24a3 3 0 0 1-3-3v-8a3 3 0 0 1 3-3Zm8 3a3 3 0 0 0-2 5v3h4v-3a3 3 0 0 0-2-5Z"/>
</svg>
