<svg xmlns="http://www.w3.org/2000/svg" width="220" height="64" viewBox="0 0 220 64" role="img" aria-label="PR Vault">
  <g fill="#0f1720">
    <path d="M27 5 7 13v15c0 15 8 25 20 31 12-6 20-16 20-31V13L27 5Zm0 7 14 5v11c0 11-5 19-14 24-9-5-14-13-14-24V17l14-5Z"/>
    <path d="M22 30v-5a5 5 0 0 1 10 0v5h-3v-5a2 2 0 0 0-4 0v5h-3Z"/>
    <path d="M19 30h16a3 3 0 0 1 3 3v8a3 3 0 0 1-3 3H19a3 3 0 0 1-3-3v-8a3 3 0 0 1 3-3Zm8 3a3 3 0 0 0-2 5v3h4v-3a3 3 0 0 0-2-5Z"/>
    <text x="58" y="39" font-family="Arial, Helvetica, sans-serif" font-size="28" font-weight="800" letter-spacing="0">PR Vault</text>
  </g>
</svg>
